<svg xmlns="http://www.w3.org/2000/svg" xmlns:xlink="http://www.w3.org/1999/xlink" version="1.1" id="Layer_1" x="0px" y="0px" viewBox="0 0 64 63.8" style="enable-background:new 0 0 64 63.8;" xml:space="preserve"><style type="text/css"> .st0{fill:#FFFFFF;} .st1{fill:#EF6E47;} .st2{fill:#3F64DD;} .st3{fill:#0D0F4A;}
</style><g><path class="st1" d="M64,31.9C64,47.8,52.5,61,37.3,63.5c-0.8,0.1-1.6,0.2-2.4,0.3c-0.6,0.1-1.1-0.4-1.1-1v-8.6 c0-0.5,0.4-0.9,0.9-1c0.9-0.1,1.8-0.3,2.6-0.5c1.1-0.3,2.1-0.6,3.1-1c2.6-1.1,4.9-2.6,6.8-4.6c2-2,3.5-4.3,4.6-6.8 c1.1-2.7,1.7-5.5,1.7-8.4c0-2.9-0.6-5.7-1.7-8.4c-1.1-2.6-2.6-4.9-4.6-6.8c-2-2-4.3-3.5-6.8-4.6c-1-0.4-2.1-0.8-3.1-1v3.6 C44.7,16.9,50,23.8,50,31.9c0,8.1-5.4,15-12.7,17.2c-0.8,0.2-1.5,0.4-2.3,0.5c-0.6,0.1-1.2-0.4-1.2-1v-1.5c0-0.5,0.4-0.9,0.9-1 c0.9-0.2,1.8-0.4,2.7-0.7c3.2-1.3,6-3.7,7.8-7.1c0.3-0.6,0.6-1.2,0.8-1.9c1.7-5.5,0.3-11-3.5-14.8c-1.4-1.4-3.1-2.6-5-3.3 c-0.9-0.3-1.7-0.6-2.7-0.7c-0.5-0.1-0.9-0.5-0.9-1V8c0-0.6,0.5-1.1,1.1-1c0.8,0.1,1.6,0.2,2.4,0.4C48.6,9.9,57,19.9,57,31.9 c0,12-8.5,22-19.8,24.5v3.6c2-0.4,4-1,5.8-1.8c3.4-1.4,6.4-3.5,9.1-6.1c2.6-2.6,4.7-5.7,6.1-9.1c1.5-3.5,2.2-7.2,2.2-11.1 s-0.8-7.6-2.2-11.1c-1.4-3.4-3.5-6.4-6.1-9.1c-2.6-2.6-5.7-4.7-9.1-6.1c-1.9-0.8-3.8-1.4-5.8-1.8c-0.9-0.2-1.7-0.3-2.6-0.4 c-0.5,0-0.9-0.5-0.9-1V1c0-0.6,0.5-1,1.1-1c0.8,0.1,1.6,0.2,2.4,0.3C52.5,2.8,64,16,64,31.9z"/><path class="st3" d="M12.2,23.5c-1.1,2.7-1.7,5.5-1.7,8.4c0,2.9,0.6,5.7,1.7,8.4c1.1,2.6,2.6,4.9,4.6,6.8c2,2,4.3,3.5,6.8,4.6 c1,0.4,2.1,0.8,3.1,1v-3.6C19.4,46.9,14,40,14,31.9c0-8.1,5.4-15,12.7-17.2c0.8-0.2,1.5-0.4,2.3-0.5c0.6-0.1,1.2,0.4,1.2,1v1.5 c0,0.5-0.4,0.9-0.9,1c-0.9,0.2-1.8,0.4-2.7,0.7c-3.2,1.3-6,3.7-7.8,7.1c-0.3,0.6-0.6,1.2-0.8,1.9c-1.7,5.5-0.2,11,3.6,14.8 c1.4,1.4,3.1,2.6,5,3.3c0.9,0.3,1.7,0.6,2.7,0.7c0.5,0.1,0.9,0.5,0.9,1v8.6c0,0.6-0.5,1.1-1.1,1c-0.8-0.1-1.6-0.2-2.4-0.4 C15.5,54,7,43.9,7,31.9c0-12,8.5-22,19.8-24.5V3.9c-2,0.4-4,1-5.8,1.8c-3.4,1.4-6.4,3.5-9.1,6.1c-2.6,2.6-4.7,5.7-6.1,9.1 C4.3,24.3,3.5,28,3.5,31.9S4.3,39.5,5.7,43c1.4,3.4,3.5,6.4,6.1,9.1c2.6,2.6,5.7,4.7,9.1,6.1c1.9,0.8,3.8,1.4,5.8,1.8 c0.9,0.2,1.7,0.3,2.6,0.4c0.5,0,0.9,0.5,0.9,1v1.5c0,0.6-0.5,1-1.1,1c-0.8-0.1-1.6-0.2-2.4-0.3C11.6,61,0,47.8,0,31.9 C0,16,11.6,2.8,26.8,0.3c0.8-0.1,1.6-0.2,2.4-0.3c0.6-0.1,1.1,0.4,1.1,1v8.6c0,0.5-0.4,0.9-0.9,1c-0.9,0.1-1.8,0.3-2.6,0.5 c-1.1,0.3-2.1,0.6-3.1,1c-2.6,1.1-4.9,2.6-6.8,4.6S13.3,21,12.2,23.5z"/></g></svg>